<svg width="47" height="43" viewBox="0 0 47 43" fill="none" xmlns="http://www.w3.org/2000/svg">
  <path d="M20.0002 31.25L8.50019 40.75L8.5 31.25H4C2 31.25 1.16667 29.5833 1 28.75V4.75C1 1.95 2.86328 1.25 3.79492 1.25H43.0002C45.4002 1.25 46.0002 2.91667 46.0002 3.75V28.25C46.0002 29.85 44.0002 30.9167 43.0002 31.25H20.0002Z" fill="white"/>
  <path d="M4.50019 5.75L16.0002 15.2786M42.0002 5.75L30.8623 15.25M30.8623 15.25L25.0002 20.25C23.8002 21.05 22.5002 20.5833 22.0002 20.25L16.0002 15.2786M30.8623 15.25L42.0002 27.25M16.0002 15.2786L4.50019 27.25M11 31.25H8.5M8.5 31.25H4C2 31.25 1.16667 29.5833 1 28.75V4.75C1 1.95 2.86328 1.25 3.79492 1.25H43.0002C45.4002 1.25 46.0002 2.91667 46.0002 3.75V28.25C46.0002 29.85 44.0002 30.9167 43.0002 31.25H20.0002L8.50019 40.75L8.5 31.25Z" stroke="#858A8C" stroke-width="2"/>
</svg>
