<svg width="48" height="48" viewBox="0 0 48 48" fill="none" xmlns="http://www.w3.org/2000/svg">
  <path d="M33.3171 32.3291L31.9171 34.4291C31.6377 34.8482 31.2681 35.2059 30.7811 35.3346C29.1857 35.7561 24.9502 35.9465 18.5019 29.4982C12.0535 23.0498 12.2439 18.8143 12.6654 17.2189C12.7941 16.7319 13.1518 16.3623 13.5709 16.0829L15.6709 14.6829C17.2344 13.6406 17.6569 11.5282 16.6145 9.96467L12.6484 4.01543C11.7386 2.65075 9.98471 2.12937 8.47718 2.77546L6.68803 3.54223C5.32889 4.12472 4.2202 5.17011 3.5589 6.49271C3.00641 7.59769 2.57819 8.7613 2.52017 9.99534C2.33733 13.8843 3.19008 23.4655 13.8623 34.1378C24.5345 44.81 34.1157 45.6627 38.0047 45.4798C39.2387 45.4218 40.4023 44.9936 41.5073 44.4411C42.8299 43.7798 43.8753 42.6711 44.4578 41.312L45.2245 39.5228C45.8706 38.0153 45.3492 36.2614 43.9846 35.3516L38.0353 31.3855C36.4718 30.3431 34.3594 30.7656 33.3171 32.3291Z" fill="white" stroke="white" stroke-width="1.53846"/>
</svg>
