<svg width="48" height="48" viewBox="0 0 48 48" fill="none" xmlns="http://www.w3.org/2000/svg">
  <path d="M31.4891 28.44L30.6643 29.6772C30.4997 29.9242 30.282 30.1349 29.995 30.2107C29.0551 30.4591 26.5598 30.5712 22.7608 26.7722C18.9618 22.9732 19.0739 20.4778 19.3223 19.5379C19.3981 19.251 19.6088 19.0332 19.8557 18.8686L21.0929 18.0438C22.014 17.4297 22.263 16.1852 21.6489 15.2641L19.3122 11.7591C18.7762 10.9551 17.7429 10.6479 16.8548 11.0286L15.8007 11.4803C15 11.8235 14.3468 12.4394 13.9572 13.2186C13.6317 13.8696 13.3794 14.5551 13.3452 15.2822C13.2375 17.5733 13.7399 23.2181 20.0274 29.5056C26.3149 35.7931 31.9596 36.2955 34.2508 36.1877C34.9778 36.1536 35.6634 35.9013 36.3144 35.5758C37.0936 35.1862 37.7095 34.533 38.0526 33.7323L38.5044 32.6782C38.885 31.79 38.5779 30.7567 37.7739 30.2207L34.2689 27.8841C33.3477 27.27 32.1032 27.5189 31.4891 28.44Z" fill="white" stroke="white" stroke-width="2"/>
</svg>
