<svg width="48" height="48" viewBox="0 0 48 48" fill="none" xmlns="http://www.w3.org/2000/svg">
  <path d="M31.4893 28.94L30.6645 30.1772C30.4999 30.4242 30.2822 30.6349 29.9952 30.7107C29.0553 30.9591 26.56 31.0712 22.761 27.2722C18.962 23.4732 19.0741 20.9778 19.3224 20.0379C19.3983 19.751 19.609 19.5332 19.8559 19.3686L21.0931 18.5438C22.0142 17.9297 22.2631 16.6852 21.6491 15.7641L19.3124 12.2591C18.7764 11.4551 17.7431 11.1479 16.855 11.5286L15.8009 11.9803C15.0001 12.3235 14.347 12.9394 13.9574 13.7186C13.6319 14.3696 13.3796 15.0551 13.3454 15.7822C13.2377 18.0733 13.7401 23.7181 20.0276 30.0056C26.3151 36.2931 31.9598 36.7955 34.251 36.6877C34.978 36.6536 35.6636 36.4013 36.3146 36.0758C37.0938 35.6862 37.7096 35.033 38.0528 34.2323L38.5046 33.1782C38.8852 32.29 38.578 31.2567 37.774 30.7207L34.2691 28.3841C33.3479 27.77 32.1034 28.0189 31.4893 28.94Z" fill="white" stroke="white" stroke-width="2"/>
</svg>
