<svg xmlns="http://www.w3.org/2000/svg" version="1.1" xmlns:xlink="http://www.w3.org/1999/xlink" xmlns:svgjs="http://svgjs.com/svgjs" width="206" height="206"><svg width="206" height="206" viewBox="0 0 206 206" fill="none" xmlns="http://www.w3.org/2000/svg">
<g clip-path="url(#clip0_862_10409)">
<path d="M-0.344727 46.2306C-0.344727 41.0641 1.93326 36.1605 5.8814 32.8281L39.6725 4.30698C42.8368 1.63617 46.844 0.171082 50.9848 0.171082H152.931C156.978 0.171082 160.901 1.57083 164.034 4.13298L199.22 32.9081C203.293 36.2391 205.655 41.2229 205.655 46.4847V165.318C205.655 170.681 203.202 175.749 198.996 179.075L170.073 201.947C167.033 204.351 163.283 205.68 159.408 205.728L47.7339 207.094C43.6862 207.144 39.746 205.792 36.5817 203.267L6.25615 179.074C2.08472 175.747 -0.344727 170.701 -0.344727 165.364V46.2306Z" fill="#292929"></path>
<mask id="SvgjsMask1009" style="mask-type:alpha" maskUnits="userSpaceOnUse" x="-1" y="0" width="207" height="208">
<path d="M-0.344727 46.2306C-0.344727 41.0641 1.93326 36.1605 5.8814 32.8281L39.6725 4.30698C42.8368 1.63617 46.844 0.171082 50.9848 0.171082H152.691C156.884 0.171082 160.938 1.67297 164.118 4.40458L197.358 32.9523C201.158 36.2159 203.381 40.9487 203.467 45.9571L205.507 165.133C205.6 170.601 203.139 175.799 198.85 179.19L170.073 201.947C167.033 204.351 163.283 205.68 159.408 205.728L47.7339 207.094C43.6862 207.144 39.746 205.792 36.5817 203.267L6.25615 179.074C2.08472 175.747 -0.344727 170.701 -0.344727 165.364V46.2306Z" fill="#4C4B49"></path>
</mask>
<g mask="url(#mask0_862_10409)">
<g opacity="0.1" filter="url(#filter0_f_862_10409)">
<rect width="271.265" height="62.1842" transform="matrix(0.740509 -0.672047 0.698638 0.715475 -86.2568 78.1401)" fill="url(#paint0_linear_862_10409)"></rect>
</g>
<g opacity="0.5" filter="url(#filter1_f_862_10409)">
<rect width="271.265" height="120.985" transform="matrix(0.740509 -0.672047 0.698638 0.715475 -59.6831 137.347)" fill="url(#paint1_linear_862_10409)"></rect>
</g>
<g opacity="0.2" filter="url(#filter2_f_862_10409)">
<rect width="271.265" height="106.321" transform="matrix(0.740509 -0.672047 0.698638 0.715475 28.8086 222.197)" fill="url(#paint2_linear_862_10409)"></rect>
</g>
</g>
<g filter="url(#filter3_d_862_10409)">
<path fill-rule="evenodd" clip-rule="evenodd" d="M55.3851 170.197H83.5359L88.1869 125.074C87.7616 123.334 87.9847 121.569 88.7063 120.035L88.7383 119.724L88.855 119.735C90.0886 117.379 92.5239 115.635 95.5814 115.499L103.515 115.145H103.651C106.692 115.145 109.011 114.358 111.722 113.332C113.581 112.611 114.681 111.672 115.38 110.627C116.067 109.567 116.633 107.875 116.633 105.158C116.633 102.432 116.062 100.696 115.345 99.5794L115.333 99.5616L115.322 99.5437C114.588 98.3827 113.469 97.4058 111.641 96.6758L111.61 96.6634L111.579 96.6506C109.654 95.8571 106.971 95.3372 103.323 95.3372H89.7184C85.3215 95.3372 81.7571 91.8473 81.7571 87.5423V67.9328C81.7571 63.5601 85.4302 60.0427 89.8953 60.1399L105.381 60.4768H145.945V39.1455H55.3851V170.197ZM89.7626 65.9846C89.6959 65.9832 89.6298 65.9849 89.5647 65.9898C89.4674 65.9971 89.3721 66.0112 89.2792 66.0317C89.0313 66.0864 88.8007 66.1864 88.5971 66.3226C88.5969 66.3227 88.5973 66.3225 88.5971 66.3226C88.0733 66.6732 87.7281 67.2631 87.7281 67.9328V87.5423C87.7281 88.5679 88.5373 89.4085 89.5647 89.4853C89.6154 89.4891 89.6667 89.491 89.7184 89.491H103.323C107.507 89.491 111.032 90.0816 113.896 91.2626C116.761 92.4067 118.929 94.1414 120.399 96.4666C121.869 98.7548 122.604 101.652 122.604 105.158C122.604 108.665 121.869 111.543 120.399 113.795C118.929 116.009 116.761 117.67 113.896 118.777C111.859 119.548 109.631 120.358 106.964 120.75C105.93 120.902 104.831 120.992 103.651 120.992L95.8526 121.339C95.3103 121.363 94.8463 121.589 94.5124 121.929C93.9463 122.505 93.7538 123.407 94.1865 124.202L103.3 140.942C103.36 141.052 103.431 141.156 103.51 141.251L118.522 168.697C118.864 169.322 119.525 169.716 120.248 169.726L150.191 170.145C151.78 170.167 152.754 168.447 151.892 167.14L132.248 137.333C134.094 136.459 135.814 135.476 137.409 134.382C141.04 131.892 144.021 128.831 146.353 125.199C149.858 119.7 151.611 113.02 151.611 105.158C151.611 97.4077 149.896 90.709 146.466 85.0621C143.035 79.3784 138.844 74.8129 132.511 71.7865C126.54 68.3762 118.789 66.4275 110.119 66.4275L89.7626 65.9846ZM134.776 66.323H146.941C149.689 66.323 151.916 64.1418 151.916 61.4512V38.1711C151.916 35.4805 149.689 33.2993 146.941 33.2993H54.3899C51.6418 33.2993 49.4141 35.4805 49.4141 38.1711V171.171C49.4141 173.862 51.6418 176.043 54.3899 176.043H84.4357C86.9903 176.043 89.1299 174.149 89.3864 171.66L93.1864 134.793L98.0309 143.691C98.1521 143.914 98.2834 144.129 98.4241 144.337L113.259 171.457C114.625 173.956 117.269 175.531 120.163 175.572L150.106 175.99C156.462 176.079 160.356 169.199 156.909 163.97L140.649 139.297C144.981 136.362 148.59 132.7 151.408 128.31L151.413 128.302L151.418 128.295C155.63 121.687 157.582 113.88 157.582 105.158C157.582 96.5496 155.67 88.7812 151.602 82.081C147.8 75.784 142.887 70.2946 135.328 66.6284C135.146 66.5253 134.962 66.4235 134.776 66.323Z" fill="black"></path>
</g>
<g filter="url(#filter4_d_862_10409)">
<path fill-rule="evenodd" clip-rule="evenodd" d="M145.81 39.1705C145.611 39.1399 145.433 39.1427 145.346 39.1512L145.149 39.1706H56.4381C56.405 39.4146 56.3803 39.7343 56.3803 40.145V167.786C56.3803 168.004 56.4032 168.328 56.4685 168.68C56.5089 168.897 56.5588 169.089 56.6116 169.248H83.1403C83.1888 169.077 83.2429 168.793 83.2492 168.359C83.2526 168.132 83.2685 167.867 83.3108 167.58L88.7558 130.541L87.755 128.797C87.7526 128.792 87.7501 128.788 87.7477 128.784C86.6312 126.868 85.1538 123.586 85.1907 120.424C85.2103 118.747 85.6702 116.654 87.3578 114.998C89.0568 113.331 91.3592 112.735 93.6991 112.735C100.011 112.735 106.604 111.837 109.225 111.369C109.594 111.303 109.923 111.28 110.191 111.272C110.83 111.254 111.589 110.985 112.41 110.423C113.054 109.982 113.588 109.46 113.945 109.043C114.168 108.155 114.401 106.852 114.465 105.433C114.541 103.742 114.361 102.188 113.887 101.028C113.651 100.451 113.025 99.8191 111.705 99.2987C110.402 98.7851 108.955 98.6065 108.129 98.6065H89.7185C86.0327 98.6065 83.3449 97.0156 81.7112 94.794C80.2237 92.7713 79.7668 90.4609 79.7668 88.8629V67.4521C79.7668 65.6532 80.2685 64.0009 81.2858 62.626C82.2793 61.2835 83.5835 60.4482 84.8094 59.9406C87.0174 59.0265 89.399 58.9876 91.0009 59.174L121.097 59.6321H145.849C145.864 59.5914 145.879 59.5431 145.894 59.4873C145.913 59.4117 145.927 59.3373 145.936 59.2708C145.944 59.203 145.946 59.1586 145.946 59.145V39.1965C145.906 39.1873 145.861 39.1784 145.81 39.1705ZM120.983 67.4261L90.4 66.9606L90.1507 66.9258C89.8509 66.8838 89.4229 66.8609 88.9694 66.8972C88.5089 66.934 88.1477 67.0216 87.9101 67.12C87.831 67.1528 87.7794 67.1807 87.7479 67.2001C87.7383 67.2476 87.7281 67.3281 87.7281 67.4521V88.8629C87.7281 88.9869 87.7509 89.2355 87.8362 89.5278C87.9199 89.8146 88.0387 90.058 88.1721 90.2395C88.2951 90.4068 88.4291 90.522 88.5953 90.6059C88.7583 90.6883 89.0925 90.8116 89.7185 90.8116H108.129C109.791 90.8116 112.275 91.1202 114.679 92.0681C117.066 93.0093 119.923 94.8132 121.279 98.1334C122.333 100.714 122.521 103.498 122.419 105.775C122.315 108.084 121.898 110.182 121.495 111.577C121.324 112.168 121.047 112.758 120.641 113.305C119.864 114.356 118.607 115.691 116.974 116.81C115.364 117.913 113.155 118.961 110.524 119.06C107.512 119.59 100.526 120.53 93.6991 120.53C93.4645 120.53 93.2852 120.543 93.1514 120.559C93.1544 121.023 93.2798 121.714 93.5773 122.571C93.8744 123.426 94.2798 124.265 94.6674 124.929L94.6746 124.942L119.488 168.186C119.495 168.195 119.505 168.207 119.516 168.22C119.552 168.262 119.604 168.318 119.674 168.381C119.814 168.51 120.005 168.654 120.242 168.787C120.711 169.049 121.321 169.248 122.061 169.248H122.095L151.03 169.72C151.061 169.621 151.094 169.495 151.124 169.335C151.306 168.364 151.149 166.729 150.019 164.932C149.24 163.691 148.221 162.052 147.056 160.177C143.738 154.836 139.237 147.592 135.721 142.267C133.938 139.566 134.729 136.064 137.283 134.263C140.809 131.779 146.074 127.429 148.315 122.767C150.976 117.23 151.243 113.267 151.397 110.975C151.408 110.811 151.418 110.655 151.429 110.508L151.432 110.462L151.437 110.416C151.586 108.881 151.732 105.818 151.644 102.582C151.554 99.2373 151.223 96.2024 150.628 94.4549C148.752 88.9436 145.488 83.0771 142.933 80.1799C141.189 78.2025 137.298 74.9542 132.804 72.1685C128.177 69.3011 123.802 67.4881 120.992 67.4264C120.989 67.4263 120.986 67.4262 120.983 67.4261ZM150.877 170.028C150.873 170.023 150.89 169.991 150.938 169.951C150.904 170.014 150.88 170.034 150.877 170.028ZM93.1786 120.233C93.1788 120.234 93.1777 120.238 93.1746 120.247C93.1769 120.237 93.1784 120.233 93.1786 120.233ZM92.8371 120.626C92.8234 120.634 92.8157 120.637 92.8152 120.636C92.8148 120.636 92.8217 120.632 92.8371 120.626ZM87.7646 67.1438C87.765 67.1441 87.7632 67.1499 87.758 67.16C87.7616 67.1485 87.7641 67.1435 87.7646 67.1438ZM139.881 67.427H145.946C149.044 67.427 151.238 65.8909 152.483 63.9863C153.59 62.2918 153.907 60.4138 153.907 59.145V39.1706C153.907 35.924 152.222 33.6341 149.973 32.4277C148.134 31.4411 146.145 31.2777 144.782 31.3757H55.621L55.5913 31.3736C55.5585 31.3712 55.5063 31.3676 55.4472 31.3643C53.6381 31.264 51.6732 32.0189 50.2874 33.7538C48.9655 35.4087 48.4189 37.6208 48.4189 40.145V167.786C48.4189 169.039 48.6437 170.977 49.4773 172.759C50.3332 174.588 52.2966 177.042 55.8827 177.042H83.7474C85.3136 177.042 87.2083 176.436 88.7223 174.943C90.2906 173.397 91.1478 171.211 91.2078 168.575L95.1587 141.7L112.666 172.21L112.715 172.288C114.225 174.653 117.606 177.029 122.025 177.042L152.092 177.533L152.333 177.508C156.423 177.087 158.421 173.584 158.954 170.743C159.527 167.69 158.855 164.116 156.799 160.846C156.056 159.664 155.067 158.071 153.925 156.234C150.898 151.362 146.802 144.77 143.39 139.534C147.16 136.714 152.728 131.892 155.518 126.087C158.819 119.218 159.166 114.077 159.338 111.53C159.348 111.38 159.358 111.239 159.367 111.107C159.547 109.222 159.697 105.87 159.603 102.376C159.511 98.9611 159.178 94.9194 158.181 91.9899C156.076 85.8089 152.374 78.9586 148.958 75.0855C147.016 72.883 143.675 70.0412 139.881 67.427Z" fill="#E3E2E0"></path>
</g>
<path d="M17.0811 47.9147C17.0811 49.7885 15.5268 51.325 13.5876 51.325C11.6484 51.325 10.0941 49.7885 10.0941 47.9147C10.0941 46.0409 11.6484 44.5045 13.5876 44.5045C15.5268 44.5045 17.0811 46.0409 17.0811 47.9147Z" fill="#16130D" stroke="#848282" stroke-width="0.974359"></path>
<path d="M17.0811 163.863C17.0811 165.737 15.5268 167.274 13.5876 167.274C11.6484 167.274 10.0941 165.737 10.0941 163.863C10.0941 161.99 11.6484 160.453 13.5876 160.453C15.5268 160.453 17.0811 161.99 17.0811 163.863Z" fill="#16130D" stroke="#848282" stroke-width="0.974359"></path>
<path d="M195.216 47.9147C195.216 49.7885 193.662 51.325 191.723 51.325C189.784 51.325 188.229 49.7885 188.229 47.9147C188.229 46.0409 189.784 44.5045 191.723 44.5045C193.662 44.5045 195.216 46.0409 195.216 47.9147Z" fill="#16130D" stroke="#848282" stroke-width="0.974359"></path>
<path d="M55.8931 13.8122C55.8931 15.6859 54.3388 17.2224 52.3996 17.2224C50.4605 17.2224 48.9061 15.6859 48.9061 13.8122C48.9061 11.9384 50.4605 10.4019 52.3996 10.4019C54.3388 10.4019 55.8931 11.9384 55.8931 13.8122Z" fill="#16130D" stroke="#848282" stroke-width="0.974359"></path>
<path d="M51.9122 196.992C51.9122 198.865 50.3578 200.402 48.4187 200.402C46.4795 200.402 44.9252 198.865 44.9252 196.992C44.9252 195.118 46.4795 193.581 48.4187 193.581C50.3578 193.581 51.9122 195.118 51.9122 196.992Z" fill="#16130D" stroke="#848282" stroke-width="0.974359"></path>
<path d="M157.4 13.8122C157.4 15.6859 155.846 17.2224 153.906 17.2224C151.967 17.2224 150.413 15.6859 150.413 13.8122C150.413 11.9384 151.967 10.4019 153.906 10.4019C155.846 10.4019 157.4 11.9384 157.4 13.8122Z" fill="#16130D" stroke="#848282" stroke-width="0.974359"></path>
<path d="M195.216 163.863C195.216 165.737 193.662 167.274 191.723 167.274C189.784 167.274 188.229 165.737 188.229 163.863C188.229 161.99 189.784 160.453 191.723 160.453C193.662 160.453 195.216 161.99 195.216 163.863Z" fill="#16130D" stroke="#848282" stroke-width="0.974359"></path>
<path d="M165.361 196.992C165.361 198.865 163.807 200.402 161.868 200.402C159.929 200.402 158.374 198.865 158.374 196.992C158.374 195.118 159.929 193.581 161.868 193.581C163.807 193.581 165.361 195.118 165.361 196.992Z" fill="#16130D" stroke="#848282" stroke-width="0.974359"></path>
</g>
<defs>
<filter id="SvgjsFilter1008" x="-105.744" y="-123.65" width="283.293" height="265.768" filterUnits="userSpaceOnUse" color-interpolation-filters="sRGB">
<feFlood flood-opacity="0" result="BackgroundImageFix"></feFlood>
<feBlend mode="normal" in="SourceGraphic" in2="BackgroundImageFix" result="shape"></feBlend>
<feGaussianBlur stdDeviation="9.74359" result="effect1_foregroundBlur_862_10409"></feGaussianBlur>
</filter>
<filter id="SvgjsFilter1007" x="-108.401" y="-93.6737" width="382.835" height="366.301" filterUnits="userSpaceOnUse" color-interpolation-filters="sRGB">
<feFlood flood-opacity="0" result="BackgroundImageFix"></feFlood>
<feBlend mode="normal" in="SourceGraphic" in2="BackgroundImageFix" result="shape"></feBlend>
<feGaussianBlur stdDeviation="24.359" result="effect1_foregroundBlur_862_10409"></feGaussianBlur>
</filter>
<filter id="SvgjsFilter1006" x="-19.9094" y="-8.82402" width="372.59" height="355.809" filterUnits="userSpaceOnUse" color-interpolation-filters="sRGB">
<feFlood flood-opacity="0" result="BackgroundImageFix"></feFlood>
<feBlend mode="normal" in="SourceGraphic" in2="BackgroundImageFix" result="shape"></feBlend>
<feGaussianBlur stdDeviation="24.359" result="effect1_foregroundBlur_862_10409"></feGaussianBlur>
</filter>
<filter id="SvgjsFilter1005" x="45.5166" y="33.2993" width="122.422" height="156.385" filterUnits="userSpaceOnUse" color-interpolation-filters="sRGB">
<feFlood flood-opacity="0" result="BackgroundImageFix"></feFlood>
<feColorMatrix in="SourceAlpha" type="matrix" values="0 0 0 0 0 0 0 0 0 0 0 0 0 0 0 0 0 0 127 0" result="hardAlpha"></feColorMatrix>
<feOffset dx="2.92308" dy="6.82051"></feOffset>
<feGaussianBlur stdDeviation="3.41026"></feGaussianBlur>
<feComposite in2="hardAlpha" operator="out"></feComposite>
<feColorMatrix type="matrix" values="0 0 0 0 0 0 0 0 0 0 0 0 0 0 0 0 0 0 0.96 0"></feColorMatrix>
<feBlend mode="normal" in2="BackgroundImageFix" result="effect1_dropShadow_862_10409"></feBlend>
<feBlend mode="normal" in="SourceGraphic" in2="effect1_dropShadow_862_10409" result="shape"></feBlend>
</filter>
<filter id="SvgjsFilter1004" x="44.5215" y="27.4536" width="132.649" height="167.618" filterUnits="userSpaceOnUse" color-interpolation-filters="sRGB">
<feFlood flood-opacity="0" result="BackgroundImageFix"></feFlood>
<feColorMatrix in="SourceAlpha" type="matrix" values="0 0 0 0 0 0 0 0 0 0 0 0 0 0 0 0 0 0 127 0" result="hardAlpha"></feColorMatrix>
<feOffset dx="6.82051" dy="6.82051"></feOffset>
<feGaussianBlur stdDeviation="5.35897"></feGaussianBlur>
<feComposite in2="hardAlpha" operator="out"></feComposite>
<feColorMatrix type="matrix" values="0 0 0 0 0 0 0 0 0 0 0 0 0 0 0 0 0 0 0.73 0"></feColorMatrix>
<feBlend mode="normal" in2="BackgroundImageFix" result="effect1_dropShadow_862_10409"></feBlend>
<feBlend mode="normal" in="SourceGraphic" in2="effect1_dropShadow_862_10409" result="shape"></feBlend>
</filter>
<linearGradient id="SvgjsLinearGradient1003" x1="128.411" y1="23.8985" x2="134.669" y2="71.3563" gradientUnits="userSpaceOnUse">
<stop stop-color="white" stop-opacity="0"></stop>
<stop offset="1" stop-color="white"></stop>
</linearGradient>
<linearGradient id="SvgjsLinearGradient1002" x1="135.633" y1="4.92992e-07" x2="139.316" y2="73.288" gradientUnits="userSpaceOnUse">
<stop stop-color="#D9D9D9"></stop>
<stop offset="1" stop-color="white" stop-opacity="0"></stop>
</linearGradient>
<linearGradient id="SvgjsLinearGradient1001" x1="135.633" y1="0" x2="140.069" y2="90.7092" gradientUnits="userSpaceOnUse">
<stop stop-color="white" stop-opacity="0"></stop>
<stop offset="1" stop-color="white"></stop>
</linearGradient>
<clipPath id="SvgjsClipPath1000">
<rect width="206" height="206" rx="17.54" fill="white"></rect>
</clipPath>
</defs>
</svg><style>@media (prefers-color-scheme: light) { :root { filter: none; } }
</style></svg>