<?xml version="1.0" standalone="no"?>
<!DOCTYPE svg PUBLIC "-//W3C//DTD SVG 20010904//EN"
 "http://www.w3.org/TR/2001/REC-SVG-20010904/DTD/svg10.dtd">
<svg version="1.0" xmlns="http://www.w3.org/2000/svg"
 width="700.000000pt" height="700.000000pt" viewBox="0 0 700.000000 700.000000"
 preserveAspectRatio="xMidYMid meet">
<metadata>
Created by potrace 1.14, written by Peter Selinger 2001-2017
</metadata>
<g transform="translate(0.000000,700.000000) scale(0.100000,-0.100000)"
fill="#000000" stroke="none">
<path d="M1586 6974 c-123 -30 -171 -65 -789 -586 -325 -275 -612 -520 -637
-544 -57 -55 -108 -138 -137 -223 l-22 -66 -1 -2146 c0 -2106 0 -2148 20
-2210 24 -79 78 -170 133 -226 71 -74 1124 -906 1189 -941 l63 -34 2030 5
c2261 5 2097 0 2242 74 81 42 1059 808 1149 901 57 58 113 156 141 247 17 57
18 150 18 2180 l0 2120 -28 80 c-36 100 -102 201 -175 264 -31 27 -324 268
-651 535 -617 504 -670 542 -792 571 -93 22 -3662 21 -3753 -1z m249 -328 c66
-28 94 -115 58 -177 -10 -16 -37 -39 -61 -51 -37 -18 -49 -19 -81 -10 -114 35
-133 179 -30 234 41 22 68 23 114 4z m3454 -4 c37 -20 71 -73 71 -110 0 -45
-30 -90 -74 -112 -51 -24 -60 -25 -112 -1 -43 19 -74 67 -74 113 0 38 33 90
70 110 44 23 76 23 119 0z m-219 -733 c55 -25 105 -71 133 -124 21 -39 22 -52
25 -433 3 -438 0 -463 -61 -543 -18 -24 -54 -54 -82 -68 -44 -23 -65 -27 -187
-31 l-138 -5 92 -70 c195 -147 302 -281 425 -530 127 -259 149 -377 140 -744
-7 -309 -38 -453 -137 -651 -68 -135 -198 -287 -347 -404 l-62 -48 38 -57
c127 -188 447 -714 469 -770 35 -90 37 -222 4 -295 -34 -76 -67 -112 -127
-141 l-55 -27 -532 7 c-392 5 -551 10 -602 21 -83 16 -166 63 -211 119 -17 22
-164 271 -326 554 -161 282 -295 509 -296 505 -3 -10 -115 -773 -133 -904 -15
-108 -41 -169 -94 -218 -74 -68 -63 -67 -641 -67 l-521 0 -49 26 c-28 14 -64
44 -82 68 -69 90 -64 -88 -66 2393 -2 2117 -1 2246 16 2293 21 62 67 119 115
145 36 19 75 19 1642 19 1593 1 1605 0 1650 -20z m-4555 -423 c68 -29 95 -117
55 -181 -34 -56 -122 -76 -176 -40 -32 21 -64 73 -64 105 0 39 33 92 71 112
41 22 68 23 114 4z m6055 -1 c47 -25 70 -62 70 -116 0 -42 -5 -53 -35 -84 -35
-34 -54 -40 -115 -35 -57 4 -101 55 -102 119 -1 94 99 159 182 116z m-6055
-3939 c65 -28 94 -115 59 -176 -35 -58 -125 -81 -179 -46 -33 22 -65 74 -65
106 0 39 33 92 71 112 41 22 68 23 114 4z m6055 -1 c48 -25 70 -62 70 -117 0
-43 -4 -54 -34 -84 -33 -33 -54 -39 -116 -34 -57 4 -103 58 -103 120 0 94 101
157 183 115z m-4861 -1129 c87 -45 82 -179 -7 -222 -82 -39 -182 20 -182 106
0 79 47 129 123 130 21 0 51 -7 66 -14z m3877 -19 c109 -100 -14 -270 -147
-202 -118 61 -71 235 62 235 42 0 55 -5 85 -33z"/>
<path d="M1711 6609 c-92 -86 7 -220 123 -168 14 7 33 28 42 47 20 44 7 101
-31 126 -36 23 -106 21 -134 -5z"/>
<path d="M5161 6609 c-50 -47 -50 -111 1 -154 79 -66 205 13 169 107 -17 46
-50 68 -101 68 -33 0 -53 -6 -69 -21z"/>
<path d="M1920 3460 l0 -2210 453 0 452 0 28 198 c15 108 58 404 96 657 l68
460 -33 56 c-106 181 -113 379 -16 472 57 55 113 70 291 78 170 8 294 21 445
44 92 15 142 41 168 88 7 13 12 64 13 127 0 130 -11 155 -80 190 l-50 25 -400
5 c-393 5 -401 5 -452 29 -62 28 -136 103 -166 169 -21 46 -22 60 -25 470 -3
475 -1 494 63 569 19 23 61 54 93 70 l57 28 570 -5 c314 -3 770 -5 1015 -5
l445 0 3 348 2 347 -1520 0 -1520 0 0 -2210z"/>
<path d="M2996 4722 c-15 -3 -16 -33 -14 -392 2 -303 6 -392 16 -402 10 -10
104 -14 410 -19 418 -6 428 -7 527 -56 72 -37 119 -76 153 -131 53 -84 67
-143 67 -282 0 -195 -26 -272 -120 -358 -86 -79 -159 -110 -311 -132 -150 -22
-343 -40 -464 -43 -79 -2 -85 -3 -88 -24 -2 -12 6 -44 18 -70 12 -26 213 -382
448 -791 317 -554 433 -747 452 -757 21 -11 141 -16 531 -23 277 -6 508 -8
513 -5 12 8 -1 87 -20 126 -19 37 -287 469 -417 672 -50 77 -96 154 -104 172
-30 74 -4 167 63 221 22 17 79 64 127 103 216 175 326 374 357 644 14 129 12
445 -4 535 -16 91 -50 180 -123 320 -110 214 -214 327 -438 475 -121 81 -238
143 -330 176 -55 20 -89 22 -390 30 -400 10 -835 15 -859 11z"/>
<path d="M433 5473 c-72 -14 -99 -119 -44 -174 43 -43 101 -41 147 5 76 76 7
189 -103 169z"/>
<path d="M6483 5468 c-70 -18 -97 -109 -49 -165 21 -25 31 -28 81 -28 51 0 59
3 81 30 65 81 -11 190 -113 163z"/>
<path d="M433 1533 c-72 -14 -99 -119 -44 -174 43 -43 101 -41 147 5 76 76 7
189 -103 169z"/>
<path d="M6483 1528 c-70 -18 -97 -109 -49 -165 21 -25 31 -28 81 -28 51 0 59
3 81 30 65 81 -11 190 -113 163z"/>
<path d="M1588 393 c-55 -35 -64 -105 -19 -155 25 -28 36 -33 76 -33 40 0 51
5 76 33 81 91 -28 220 -133 155z"/>
<path d="M5450 398 c-14 -7 -33 -30 -43 -51 -16 -31 -17 -42 -7 -73 13 -39 60
-74 98 -74 63 0 120 69 107 130 -13 60 -98 97 -155 68z"/>
</g>
</svg>
