<svg width="670" height="190" viewBox="0 0 670 190" fill="none" xmlns="http://www.w3.org/2000/svg">
  <g opacity="0.8">
    <path fill-rule="evenodd" clip-rule="evenodd" d="M1 81C1 36.8172 36.8172 1 81 1H589C633.183 1 669 36.8172 669 81V109C669 153.183 633.183 189 589 189H81C36.8172 189 1 153.183 1 109V81ZM81 9C41.2355 9 9 41.2355 9 81V109C9 148.764 41.2355 181 81 181H589C628.765 181 661 148.765 661 109V81C661 41.2355 628.765 9 589 9H81Z" stroke="#F2F2F2" stroke-width="2"/>
    <mask id="path-2-outside-1_200_851" maskUnits="userSpaceOnUse" x="142.728" y="57.2275" width="396" height="76" fill="black">
      <rect fill="white" x="142.728" y="57.2275" width="396" height="76"/>
      <path d="M145.728 130L157.318 60.1821H161.58L156.125 93.0798H198.193L203.648 60.1821H207.909L196.318 130H192.057L197.512 97.0344H155.443L149.989 130H145.728Z"/>
      <path d="M213.816 130H209.316L246.1 60.1821H251.009L264.611 130H260.111L247.872 65.6707H247.497L213.816 130ZM224.588 103.716H258.134L257.452 107.671H223.907L224.588 103.716Z"/>
      <path d="M277.634 130L289.225 60.1821H310.736C315.145 60.1821 318.793 61.0457 321.679 62.773C324.588 64.4775 326.634 66.8639 327.816 69.9321C329.02 73.0003 329.293 76.5571 328.634 80.6025C327.952 84.6025 326.509 88.1253 324.304 91.1707C322.1 94.1935 319.27 96.5571 315.816 98.2616C312.384 99.9662 308.463 100.818 304.054 100.818H284.759L285.407 96.8298H304.6C308.168 96.8298 311.338 96.1594 314.111 94.8185C316.907 93.4775 319.179 91.5912 320.929 89.1594C322.702 86.7275 323.861 83.8753 324.407 80.6025C324.952 77.2616 324.747 74.3639 323.793 71.9094C322.838 69.4321 321.191 67.523 318.85 66.1821C316.509 64.8184 313.543 64.1366 309.952 64.1366H292.804L281.895 130H277.634ZM311.588 98.3639L323.486 130H318.679L306.85 98.3639H311.588Z"/>
      <path d="M356.912 130H337.446L349.037 60.1821H369.799C376.344 60.1821 381.719 61.5798 385.924 64.3753C390.151 67.148 393.083 71.1366 394.719 76.3412C396.378 81.5457 396.594 87.7844 395.367 95.0571C394.117 102.375 391.776 108.648 388.344 113.875C384.912 119.08 380.537 123.068 375.219 125.841C369.924 128.614 363.821 130 356.912 130ZM342.389 126.046H357.253C363.412 126.046 368.844 124.773 373.549 122.228C378.253 119.682 382.105 116.068 385.105 111.387C388.128 106.682 390.162 101.114 391.208 94.6821C392.276 88.2275 392.162 82.7275 390.867 78.1821C389.571 73.6366 387.105 70.1594 383.469 67.7503C379.855 65.3412 375.071 64.1366 369.117 64.1366H352.651L342.389 126.046Z"/>
      <path d="M467.426 95.2616C466.245 102.443 463.972 108.716 460.608 114.08C457.245 119.421 453.108 123.568 448.199 126.523C443.313 129.478 437.983 130.955 432.21 130.955C426.301 130.955 421.358 129.455 417.381 126.455C413.426 123.455 410.642 119.25 409.029 113.841C407.438 108.432 407.222 102.125 408.381 94.9207C409.608 87.7389 411.904 81.4775 415.267 76.1366C418.654 70.773 422.801 66.6139 427.71 63.6594C432.62 60.7048 437.972 59.2275 443.767 59.2275C449.563 59.2275 454.449 60.7275 458.426 63.7275C462.404 66.7048 465.199 70.898 466.813 76.3071C468.449 81.6934 468.654 88.0116 467.426 95.2616ZM463.301 94.9207C464.392 88.4207 464.267 82.8071 462.926 78.0798C461.608 73.3525 459.29 69.7162 455.972 67.1707C452.676 64.6025 448.585 63.3184 443.699 63.3184C438.699 63.3184 434.04 64.6253 429.722 67.2389C425.404 69.8525 421.733 73.5571 418.71 78.3525C415.71 83.1253 413.654 88.7616 412.54 95.2616C411.449 101.762 411.563 107.375 412.881 112.103C414.199 116.807 416.517 120.443 419.835 123.012C423.154 125.58 427.279 126.864 432.21 126.864C437.256 126.864 441.938 125.557 446.256 122.943C450.597 120.307 454.267 116.603 457.267 111.83C460.267 107.034 462.279 101.398 463.301 94.9207Z"/>
      <path d="M487.557 60.1821L502.966 91.7844H503.341L529.216 60.1821H534.432L505.762 95.0912L522.841 130H517.898L502.489 98.6025H502.114L476.239 130H470.921L499.932 95.0912L482.512 60.1821H487.557Z"/>
    </mask>
    <path d="M145.728 130L157.318 60.1821H161.58L156.125 93.0798H198.193L203.648 60.1821H207.909L196.318 130H192.057L197.512 97.0344H155.443L149.989 130H145.728Z" stroke="#F2F2F2" stroke-width="4" mask="url(#path-2-outside-1_200_851)"/>
    <path d="M213.816 130H209.316L246.1 60.1821H251.009L264.611 130H260.111L247.872 65.6707H247.497L213.816 130ZM224.588 103.716H258.134L257.452 107.671H223.907L224.588 103.716Z" stroke="#F2F2F2" stroke-width="4" mask="url(#path-2-outside-1_200_851)"/>
    <path d="M277.634 130L289.225 60.1821H310.736C315.145 60.1821 318.793 61.0457 321.679 62.773C324.588 64.4775 326.634 66.8639 327.816 69.9321C329.02 73.0003 329.293 76.5571 328.634 80.6025C327.952 84.6025 326.509 88.1253 324.304 91.1707C322.1 94.1935 319.27 96.5571 315.816 98.2616C312.384 99.9662 308.463 100.818 304.054 100.818H284.759L285.407 96.8298H304.6C308.168 96.8298 311.338 96.1594 314.111 94.8185C316.907 93.4775 319.179 91.5912 320.929 89.1594C322.702 86.7275 323.861 83.8753 324.407 80.6025C324.952 77.2616 324.747 74.3639 323.793 71.9094C322.838 69.4321 321.191 67.523 318.85 66.1821C316.509 64.8184 313.543 64.1366 309.952 64.1366H292.804L281.895 130H277.634ZM311.588 98.3639L323.486 130H318.679L306.85 98.3639H311.588Z" stroke="#F2F2F2" stroke-width="4" mask="url(#path-2-outside-1_200_851)"/>
    <path d="M356.912 130H337.446L349.037 60.1821H369.799C376.344 60.1821 381.719 61.5798 385.924 64.3753C390.151 67.148 393.083 71.1366 394.719 76.3412C396.378 81.5457 396.594 87.7844 395.367 95.0571C394.117 102.375 391.776 108.648 388.344 113.875C384.912 119.08 380.537 123.068 375.219 125.841C369.924 128.614 363.821 130 356.912 130ZM342.389 126.046H357.253C363.412 126.046 368.844 124.773 373.549 122.228C378.253 119.682 382.105 116.068 385.105 111.387C388.128 106.682 390.162 101.114 391.208 94.6821C392.276 88.2275 392.162 82.7275 390.867 78.1821C389.571 73.6366 387.105 70.1594 383.469 67.7503C379.855 65.3412 375.071 64.1366 369.117 64.1366H352.651L342.389 126.046Z" stroke="#F2F2F2" stroke-width="4" mask="url(#path-2-outside-1_200_851)"/>
    <path d="M467.426 95.2616C466.245 102.443 463.972 108.716 460.608 114.08C457.245 119.421 453.108 123.568 448.199 126.523C443.313 129.478 437.983 130.955 432.21 130.955C426.301 130.955 421.358 129.455 417.381 126.455C413.426 123.455 410.642 119.25 409.029 113.841C407.438 108.432 407.222 102.125 408.381 94.9207C409.608 87.7389 411.904 81.4775 415.267 76.1366C418.654 70.773 422.801 66.6139 427.71 63.6594C432.62 60.7048 437.972 59.2275 443.767 59.2275C449.563 59.2275 454.449 60.7275 458.426 63.7275C462.404 66.7048 465.199 70.898 466.813 76.3071C468.449 81.6934 468.654 88.0116 467.426 95.2616ZM463.301 94.9207C464.392 88.4207 464.267 82.8071 462.926 78.0798C461.608 73.3525 459.29 69.7162 455.972 67.1707C452.676 64.6025 448.585 63.3184 443.699 63.3184C438.699 63.3184 434.04 64.6253 429.722 67.2389C425.404 69.8525 421.733 73.5571 418.71 78.3525C415.71 83.1253 413.654 88.7616 412.54 95.2616C411.449 101.762 411.563 107.375 412.881 112.103C414.199 116.807 416.517 120.443 419.835 123.012C423.154 125.58 427.279 126.864 432.21 126.864C437.256 126.864 441.938 125.557 446.256 122.943C450.597 120.307 454.267 116.603 457.267 111.83C460.267 107.034 462.279 101.398 463.301 94.9207Z" stroke="#F2F2F2" stroke-width="4" mask="url(#path-2-outside-1_200_851)"/>
    <path d="M487.557 60.1821L502.966 91.7844H503.341L529.216 60.1821H534.432L505.762 95.0912L522.841 130H517.898L502.489 98.6025H502.114L476.239 130H470.921L499.932 95.0912L482.512 60.1821H487.557Z" stroke="#F2F2F2" stroke-width="4" mask="url(#path-2-outside-1_200_851)"/>
  </g>
</svg>
