<svg width="94" height="503" viewBox="0 0 94 503" fill="none" xmlns="http://www.w3.org/2000/svg">
  <g opacity="0.8">
    <path fill-rule="evenodd" clip-rule="evenodd" d="M82 0.75195C115.137 0.751952 142 27.6416 142 60.8117L142 442.191C142 475.361 115.137 502.25 82 502.25L61 502.25C27.8629 502.25 0.999979 475.361 0.999981 442.191L0.999997 60.8117C0.999999 27.6416 27.8629 0.751948 61 0.75195L82 0.75195ZM136 60.8117C136 30.9586 111.823 6.75792 82 6.75792L61 6.75792C31.1766 6.75792 7 30.9586 7 60.8117L6.99998 442.191C6.99998 472.044 31.1766 496.244 61 496.244L82 496.244C111.823 496.244 136 472.044 136 442.191L136 60.8117Z" stroke="#F2F2F2"/>
    <mask id="path-2-outside-1_391_2681" maskUnits="userSpaceOnUse" x="37.8809" y="65.8174" width="57" height="380" fill="black">
      <rect fill="white" x="37.8809" y="65.8174" width="57" height="380"/>
      <path d="M46.517 119.233L55.2102 66.8174H58.4062L54.3153 91.5152H85.8665L89.9574 66.8174H93.1534L84.4602 119.233H81.2642L85.3551 94.4841H53.8039L49.713 119.233H46.517Z"/>
      <path d="M49.892 181.545H46.517L74.1051 129.129H77.7869L87.9887 181.545H84.6136L75.4346 133.25H75.1534L49.892 181.545ZM57.9715 161.812H83.1306L82.6193 164.781H57.4602L57.9715 161.812Z"/>
      <path d="M49.713 246.86L58.4062 194.444H74.5397C77.8465 194.444 80.5823 195.093 82.7471 196.389C84.9289 197.669 86.4631 199.461 87.3494 201.764C88.2528 204.067 88.4574 206.738 87.9631 209.775C87.4517 212.778 86.3692 215.422 84.7158 217.709C83.0624 219.978 80.9403 221.753 78.3494 223.032C75.7755 224.312 72.8352 224.952 69.5284 224.952H55.0568L55.5426 221.957H69.9374C72.6136 221.957 74.9914 221.454 77.071 220.447C79.1676 219.441 80.8721 218.024 82.1846 216.199C83.5141 214.373 84.3834 212.232 84.7925 209.775C85.2016 207.267 85.0482 205.091 84.3323 203.248C83.6164 201.389 82.3806 199.955 80.6249 198.949C78.8692 197.925 76.6448 197.413 73.9516 197.413H61.0909L52.909 246.86H49.713ZM75.1789 223.109L84.1022 246.86H80.4971L71.6249 223.109H75.1789Z"/>
      <path d="M60.1587 313.438H45.5593L54.2525 261.022H69.8235C74.7326 261.022 78.7638 262.071 81.9173 264.17C85.0877 266.251 87.2866 269.246 88.5139 273.153C89.7582 277.06 89.9202 281.744 88.9997 287.204C88.0622 292.698 86.3064 297.407 83.7326 301.332C81.1587 305.239 77.8775 308.233 73.8888 310.315C69.9172 312.397 65.3405 313.438 60.1587 313.438ZM49.2667 310.469H60.4144C65.0337 310.469 69.1076 309.513 72.636 307.602C76.1644 305.691 79.0536 302.978 81.3036 299.463C83.5707 295.931 85.0962 291.751 85.8803 286.923C86.6815 282.077 86.5962 277.948 85.6246 274.535C84.6531 271.123 82.8036 268.512 80.0763 266.704C77.3661 264.895 73.778 263.991 69.3121 263.991H56.9627L49.2667 310.469Z"/>
      <path d="M87.4356 350.079C86.5492 355.471 84.8446 360.18 82.3219 364.207C79.7992 368.216 76.6969 371.33 73.0151 373.548C69.3503 375.767 65.3531 376.876 61.0236 376.876C56.5918 376.876 52.8844 375.749 49.9014 373.497C46.9355 371.245 44.8475 368.088 43.6372 364.028C42.4441 359.967 42.2821 355.232 43.1514 349.823C44.0719 344.431 45.7935 339.731 48.3162 335.721C50.856 331.694 53.9668 328.572 57.6486 326.354C61.3304 324.136 65.3446 323.027 69.6912 323.027C74.0378 323.027 77.7026 324.153 80.6855 326.405C83.6685 328.64 85.7652 331.788 86.9754 335.849C88.2027 339.893 88.3561 344.636 87.4356 350.079ZM84.3418 349.823C85.16 344.943 85.0662 340.729 84.0605 337.18C83.0719 333.631 81.3333 330.901 78.8446 328.99C76.373 327.062 73.3048 326.098 69.6401 326.098C65.8901 326.098 62.3958 327.079 59.1571 329.041C55.9185 331.003 53.1656 333.784 50.8986 337.385C48.6486 340.968 47.106 345.199 46.2708 350.079C45.4526 354.959 45.5378 359.173 46.5264 362.722C47.5151 366.254 49.2537 368.984 51.7423 370.912C54.231 372.84 57.3247 373.804 61.0236 373.804C64.8077 373.804 68.3191 372.823 71.5577 370.861C74.8134 368.882 77.5662 366.101 79.8162 362.518C82.0662 358.917 83.5747 354.686 84.3418 349.823Z"/>
      <path d="M53.3581 391.891L64.915 415.616H65.1962L84.6025 391.891H88.5145L67.0116 418.098L79.8213 444.306H76.1139L64.557 420.734H64.2758L44.8695 444.306H40.8809L62.6394 418.098L49.574 391.891H53.3581Z"/>
    </mask>
    <path d="M46.517 119.233L55.2102 66.8174H58.4062L54.3153 91.5152H85.8665L89.9574 66.8174H93.1534L84.4602 119.233H81.2642L85.3551 94.4841H53.8039L49.713 119.233H46.517Z" stroke="#F2F2F2" stroke-width="2" mask="url(#path-2-outside-1_391_2681)"/>
    <path d="M49.892 181.545H46.517L74.1051 129.129H77.7869L87.9887 181.545H84.6136L75.4346 133.25H75.1534L49.892 181.545ZM57.9715 161.812H83.1306L82.6193 164.781H57.4602L57.9715 161.812Z" stroke="#F2F2F2" stroke-width="2" mask="url(#path-2-outside-1_391_2681)"/>
    <path d="M49.713 246.86L58.4062 194.444H74.5397C77.8465 194.444 80.5823 195.093 82.7471 196.389C84.9289 197.669 86.4631 199.461 87.3494 201.764C88.2528 204.067 88.4574 206.738 87.9631 209.775C87.4517 212.778 86.3692 215.422 84.7158 217.709C83.0624 219.978 80.9403 221.753 78.3494 223.032C75.7755 224.312 72.8352 224.952 69.5284 224.952H55.0568L55.5426 221.957H69.9374C72.6136 221.957 74.9914 221.454 77.071 220.447C79.1676 219.441 80.8721 218.024 82.1846 216.199C83.5141 214.373 84.3834 212.232 84.7925 209.775C85.2016 207.267 85.0482 205.091 84.3323 203.248C83.6164 201.389 82.3806 199.955 80.6249 198.949C78.8692 197.925 76.6448 197.413 73.9516 197.413H61.0909L52.909 246.86H49.713ZM75.1789 223.109L84.1022 246.86H80.4971L71.6249 223.109H75.1789Z" stroke="#F2F2F2" stroke-width="2" mask="url(#path-2-outside-1_391_2681)"/>
    <path d="M60.1587 313.438H45.5593L54.2525 261.022H69.8235C74.7326 261.022 78.7638 262.071 81.9173 264.17C85.0877 266.251 87.2866 269.246 88.5139 273.153C89.7582 277.06 89.9202 281.744 88.9997 287.204C88.0622 292.698 86.3064 297.407 83.7326 301.332C81.1587 305.239 77.8775 308.233 73.8888 310.315C69.9172 312.397 65.3405 313.438 60.1587 313.438ZM49.2667 310.469H60.4144C65.0337 310.469 69.1076 309.513 72.636 307.602C76.1644 305.691 79.0536 302.978 81.3036 299.463C83.5707 295.931 85.0962 291.751 85.8803 286.923C86.6815 282.077 86.5962 277.948 85.6246 274.535C84.6531 271.123 82.8036 268.512 80.0763 266.704C77.3661 264.895 73.778 263.991 69.3121 263.991H56.9627L49.2667 310.469Z" stroke="#F2F2F2" stroke-width="2" mask="url(#path-2-outside-1_391_2681)"/>
    <path d="M87.4356 350.079C86.5492 355.471 84.8446 360.18 82.3219 364.207C79.7992 368.216 76.6969 371.33 73.0151 373.548C69.3503 375.767 65.3531 376.876 61.0236 376.876C56.5918 376.876 52.8844 375.749 49.9014 373.497C46.9355 371.245 44.8475 368.088 43.6372 364.028C42.4441 359.967 42.2821 355.232 43.1514 349.823C44.0719 344.431 45.7935 339.731 48.3162 335.721C50.856 331.694 53.9668 328.572 57.6486 326.354C61.3304 324.136 65.3446 323.027 69.6912 323.027C74.0378 323.027 77.7026 324.153 80.6855 326.405C83.6685 328.64 85.7652 331.788 86.9754 335.849C88.2027 339.893 88.3561 344.636 87.4356 350.079ZM84.3418 349.823C85.16 344.943 85.0662 340.729 84.0605 337.18C83.0719 333.631 81.3333 330.901 78.8446 328.99C76.373 327.062 73.3048 326.098 69.6401 326.098C65.8901 326.098 62.3958 327.079 59.1571 329.041C55.9185 331.003 53.1656 333.784 50.8986 337.385C48.6486 340.968 47.106 345.199 46.2708 350.079C45.4526 354.959 45.5378 359.173 46.5264 362.722C47.5151 366.254 49.2537 368.984 51.7423 370.912C54.231 372.84 57.3247 373.804 61.0236 373.804C64.8077 373.804 68.3191 372.823 71.5577 370.861C74.8134 368.882 77.5662 366.101 79.8162 362.518C82.0662 358.917 83.5747 354.686 84.3418 349.823Z" stroke="#F2F2F2" stroke-width="2" mask="url(#path-2-outside-1_391_2681)"/>
    <path d="M53.3581 391.891L64.915 415.616H65.1962L84.6025 391.891H88.5145L67.0116 418.098L79.8213 444.306H76.1139L64.557 420.734H64.2758L44.8695 444.306H40.8809L62.6394 418.098L49.574 391.891H53.3581Z" stroke="#F2F2F2" stroke-width="2" mask="url(#path-2-outside-1_391_2681)"/>
  </g>
</svg>
